<svg
			version="1.1"
			xmlns="http://www.w3.org/2000/svg"
			width="512"
			height="512"
			viewBox="0 0 512 512"
			fill="currentColor"
		>
			<path
				d="M0 0 C1.45108658 0.00273422 1.45108658 0.00273422 2.93148804 0.00552368 C17.26440977 0.05095174 31.21023917 0.55983928 45.3125 3.3125 C46.65803955 3.55395752 46.65803955 3.55395752 48.03076172 3.80029297 C107.84088904 14.62287989 165.35495829 48.68064457 202.3125 97.3125 C202.72918945 97.85277832 203.14587891 98.39305664 203.57519531 98.94970703 C211.2584873 108.9447116 218.00092968 119.40459036 224.3125 130.3125 C224.70679199 130.98974121 225.10108398 131.66698242 225.50732422 132.36474609 C238.68961173 155.2833756 247.29510918 180.85822563 252.625 206.6875 C252.77243652 207.39817627 252.91987305 208.10885254 253.07177734 208.84106445 C256.05713787 224.48358366 256.6873098 240.11919606 256.625 256 C256.62226578 257.45108658 256.62226578 257.45108658 256.61947632 258.93148804 C256.57404826 273.26440977 256.06516072 287.21023917 253.3125 301.3125 C253.15152832 302.20952637 252.99055664 303.10655273 252.82470703 304.03076172 C244.93512494 347.63188156 225.2475709 388.77776903 196.3125 422.3125 C195.66667969 423.06917969 195.02085937 423.82585937 194.35546875 424.60546875 C183.71309817 436.7536432 172.22416267 448.57881337 159.3125 458.3125 C158.77512207 458.72628906 158.23774414 459.14007813 157.68408203 459.56640625 C147.6861221 467.25326589 137.22438153 473.99863145 126.3125 480.3125 C125.63525879 480.70679199 124.95801758 481.10108398 124.26025391 481.50732422 C101.3416244 494.68961173 75.76677437 503.29510918 49.9375 508.625 C49.22682373 508.77243652 48.51614746 508.91987305 47.78393555 509.07177734 C32.14141634 512.05713787 16.50580394 512.6873098 0.625 512.625 C-0.34239105 512.62317719 -1.3097821 512.62135437 -2.30648804 512.61947632 C-16.63940977 512.57404826 -30.58523917 512.06516072 -44.6875 509.3125 C-45.58452637 509.15152832 -46.48155273 508.99055664 -47.40576172 508.82470703 C-107.21588904 498.00212011 -164.72995829 463.94435543 -201.6875 415.3125 C-202.10418945 414.77222168 -202.52087891 414.23194336 -202.95019531 413.67529297 C-210.6334873 403.6802884 -217.37592968 393.22040964 -223.6875 382.3125 C-224.08179199 381.63525879 -224.47608398 380.95801758 -224.88232422 380.26025391 C-238.06461173 357.3416244 -246.67010918 331.76677437 -252 305.9375 C-252.14743652 305.22682373 -252.29487305 304.51614746 -252.44677734 303.78393555 C-255.43213787 288.14141634 -256.0623098 272.50580394 -256 256.625 C-255.99817719 255.65760895 -255.99635437 254.6902179 -255.99447632 253.69351196 C-255.94904826 239.36059023 -255.44016072 225.41476083 -252.6875 211.3125 C-252.44604248 209.96696045 -252.44604248 209.96696045 -252.19970703 208.59423828 C-241.37712011 148.78411096 -207.31935543 91.27004171 -158.6875 54.3125 C-158.14722168 53.89581055 -157.60694336 53.47912109 -157.05029297 53.04980469 C-147.0552884 45.3665127 -136.59540964 38.62407032 -125.6875 32.3125 C-125.01025879 31.91820801 -124.33301758 31.52391602 -123.63525391 31.11767578 C-100.7166244 17.93538827 -75.14177437 9.32989082 -49.3125 4 C-48.60182373 3.85256348 -47.89114746 3.70512695 -47.15893555 3.55322266 C-31.51641634 0.56786213 -15.88080394 -0.0623098 0 0 Z "
				fill="#AFAFB5"
				transform="translate(255.6875,-0.3125)"
			/>
			<path
				d="M0 0 C0 9.24 0 18.48 0 28 C3.3 28 6.6 28 10 28 C13.29762626 28.55946677 16.40285005 29.17067569 19.625 30 C20.48673828 30.22075195 21.34847656 30.44150391 22.23632812 30.66894531 C43.05609316 36.34636464 61.7428683 49.43431657 73 68 C85.83287191 90.70241622 89.57149226 113.68607263 82.61328125 138.96875 C79.01639288 150.80352753 73.18247053 160.74724851 65 170 C64.53335938 170.6084375 64.06671875 171.216875 63.5859375 171.84375 C52.85881 185.64473275 34.71273339 194.29767984 18 198 C17.12472656 198.19722656 16.24945313 198.39445313 15.34765625 198.59765625 C10.26657931 199.20833411 5.11764304 199 0 199 C0 260.05 0 321.1 0 384 C-8.58 384 -17.16 384 -26 384 C-26.0093457 381.89109375 -26.01869141 379.7821875 -26.02832031 377.609375 C-26.06217619 370.62032291 -26.11777267 363.63156342 -26.18390274 356.64274597 C-26.22331362 352.4078116 -26.25553319 348.17308317 -26.27099609 343.93798828 C-26.28620513 339.84636587 -26.32072493 335.75530987 -26.36830902 331.66394043 C-26.38307928 330.10759419 -26.39103851 328.55116707 -26.39188385 326.99475098 C-26.35115934 315.39994501 -26.35115934 315.39994501 -31 305 C-37.09999426 299.05641585 -42.86962823 298.71784046 -50.98046875 298.7265625 C-52.96940657 298.70626394 -54.95833882 298.68541299 -56.94726562 298.6640625 C-60.06295481 298.6415365 -63.17842277 298.62501712 -66.29418945 298.61914062 C-69.31501695 298.60954689 -72.334864 298.57567968 -75.35546875 298.5390625 C-76.27249069 298.54410797 -77.18951263 298.54915344 -78.13432312 298.55435181 C-88.35888819 298.40095276 -96.33866155 294.62386554 -104 288 C-104.61875 287.47535156 -105.2375 286.95070313 -105.875 286.41015625 C-113.2854076 279.62260619 -117.54008158 270.27092091 -118.17469788 260.23817444 C-118.23043434 257.03192273 -118.22491872 253.83159893 -118.1953125 250.625 C-118.1924826 249.4599292 -118.18965271 248.2948584 -118.18673706 247.09448242 C-118.17559807 243.39621438 -118.15050479 239.69819408 -118.125 236 C-118.1149621 233.48307643 -118.10583766 230.96614904 -118.09765625 228.44921875 C-118.0756793 222.29939553 -118.04226444 216.14971547 -118 210 C-118.71542969 210.0314209 -119.43085938 210.0628418 -120.16796875 210.09521484 C-123.44498402 210.2208055 -126.72149188 210.29824563 -130 210.375 C-131.12535156 210.42527344 -132.25070313 210.47554687 -133.41015625 210.52734375 C-140.13411224 210.64530789 -144.29967289 210.08028089 -149.51171875 205.68994141 C-153.30528331 201.38235382 -153.40833678 197.47849624 -153.29641724 191.91650391 C-152.82453531 187.27357056 -151.21430434 183.4123745 -149.30859375 179.1875 C-148.92566666 178.29369629 -148.54273956 177.39989258 -148.14820862 176.47900391 C-146.9297977 173.64422842 -145.68513225 170.82201956 -144.4375 168 C-132.35080727 141.62881515 -132.35080727 141.62881515 -125.9375 113.5625 C-123.62448269 95.54002827 -118.81427199 79.87641688 -110 64 C-109.51917969 63.1028125 -109.03835937 62.205625 -108.54296875 61.28125 C-93.18016251 34.00894844 -66.16961443 13.26307355 -36.18359375 4.55859375 C-23.69656287 1.1133985 -13.2669427 0 0 0 Z "
				fill="#FEFEFE"
				transform="translate(256,59)"
			/>
			<path
				d="M0 0 C4.64856856 3.89900409 9.09903685 7.93244847 13.42247009 12.18782043 C14.33186485 13.07794163 14.33186485 13.07794163 15.25963122 13.98604506 C17.27163265 15.95689972 19.28031303 17.93110057 21.28881836 19.90551758 C22.7380315 21.32715554 24.18732355 22.74871307 25.63668823 24.17019653 C38.82172278 37.11078169 51.95513471 50.10379681 65.07417965 63.11124134 C73.88553421 71.84591499 82.71232329 80.56375405 91.5793457 89.24194336 C99.33059183 96.8281417 107.05134186 104.44385987 114.73684794 112.09667319 C118.80018264 116.14075928 122.87679301 120.16893697 126.99015617 124.16217995 C130.86008558 127.92016622 134.68758975 131.71673122 138.48704147 135.54591751 C139.88319308 136.93900346 141.29384447 138.31774021 142.7200222 139.68007088 C154.57846385 151.0341162 154.57846385 151.0341162 154.9237476 159.83072728 C154.83646223 163.27423039 154.4706884 166.58473316 154 170 C153.83598507 171.96061853 153.67484858 173.9214858 153.51953125 175.8828125 C153.29866293 177.63214182 153.06290234 179.37965346 152.8125 181.125 C152.6779541 182.08889648 152.5434082 183.05279297 152.40478516 184.04589844 C145.38730146 232.03894454 125.7579468 277.193655 94 314 C93.35417969 314.75667969 92.70835937 315.51335937 92.04296875 316.29296875 C81.40059817 328.4411432 69.91166267 340.26631337 57 350 C56.46262207 350.41378906 55.92524414 350.82757813 55.37158203 351.25390625 C45.3736221 358.94076589 34.91188153 365.68613145 24 372 C23.32275879 372.39429199 22.64551758 372.78858398 21.94775391 373.19482422 C-1.80686677 386.85795531 -29.75173254 397.30352961 -57 401 C-57.91713776 401.12930405 -58.83427551 401.25860809 -59.77920532 401.39183044 C-64.33162572 400.83799914 -66.50187442 398.30104064 -69.55615234 395.14086914 C-70.18125702 394.51824692 -70.80636169 393.89562469 -71.45040894 393.25413513 C-73.51026193 391.19519951 -75.54795088 389.11571968 -77.5859375 387.03515625 C-79.01101769 385.60142226 -80.43735601 384.1689378 -81.86489868 382.73765564 C-85.61683752 378.96848764 -89.34998178 375.18120751 -93.07995605 371.39031982 C-96.13673788 368.28988363 -99.20656749 365.2025514 -102.27718163 362.11582279 C-105.92607601 358.44736965 -109.5694197 354.77343055 -113.2109375 351.09765625 C-113.91050945 350.3916585 -114.61008141 349.68566074 -115.33085251 348.95826912 C-117.29696789 346.97128104 -119.25930601 344.98065029 -121.22021484 342.98852539 C-121.80923584 342.3936734 -122.39825684 341.79882141 -123.00512695 341.1859436 C-127 337.11532811 -127 337.11532811 -127 336 C-85.42 336 -43.84 336 -1 336 C-1.28875 322.201875 -1.5775 308.40375 -1.875 294.1875 C-2.17020427 261.22976252 -0.42167962 229.72608265 5.5625 197.3125 C5.72244446 196.4459655 5.88238892 195.579431 6.04718018 194.68663788 C7.72908401 185.63050287 9.49737917 176.59286193 11.31201172 167.5625 C13.55965232 156.36237619 15.371703 145.09917019 17.125 133.8125 C17.63503275 130.58394282 18.1502227 127.35623473 18.66796875 124.12890625 C18.78227234 123.41271622 18.89657593 122.69652618 19.01434326 121.95863342 C19.70219712 117.69453518 20.4703668 113.45332485 21.30078125 109.21484375 C23.45158918 98.08802099 24.38069304 87.25480393 24.4375 75.9375 C24.44773193 74.67647461 24.45796387 73.41544922 24.46850586 72.11621094 C24.24030474 47.84071859 15.78779387 25.12854077 2.34765625 5.13671875 C1 3 1 3 0 0 Z "
				fill="#797880"
				transform="translate(358,108)"
			/>
			<path
				d="M0 0 C36.51041963 1.25897999 68.76048693 14.23949277 94.15625 40.87890625 C117.93089657 66.59450466 128.79807678 99.1473287 127.58554077 133.9896698 C126.60858782 152.68507949 122.36258989 171.29281766 119.02587891 189.67449951 C116.77121329 202.12990641 114.76756911 214.61960867 112.8125 227.125 C112.38392436 229.86548779 111.95449813 232.60581727 111.52131653 235.34558105 C111.22362386 237.23441825 110.93020643 239.12393333 110.64067078 241.01403809 C109.77641357 246.54418024 108.80932415 252.03997287 107.70924187 257.52736568 C102.10578311 285.56390769 100.98906271 312.49333891 101.0625 341.0625 C101.041875 355.561875 101.02125 370.06125 101 385 C67.67 385 34.34 385 0 385 C0 323.95 0 262.9 0 200 C8.91 199.01 8.91 199.01 18 198 C42.32297488 191.68716682 61.26090935 179.13824447 74.21875 157.35546875 C84.8930833 138.30656683 88.27756297 115.48525187 82.97265625 94.265625 C75.70653892 69.87014674 61.43883857 51.21015559 39 39 C26.70577167 32.77004063 13.61327054 30.36132705 0 29 C0 19.43 0 9.86 0 0 Z "
				fill="#69FEF6"
				transform="translate(256,58)"
			/>
			<path
				d="M0 0 C6.02642532 -0.13368603 11.42950572 0.59229351 17.25927734 2.09277344 C18.55188477 2.42390137 18.55188477 2.42390137 19.87060547 2.76171875 C40.69037051 8.43913807 59.37714565 21.52709001 70.63427734 40.09277344 C83.46714925 62.79518966 87.2057696 85.77884607 80.24755859 111.06152344 C76.65067022 122.89630097 70.81674787 132.84002195 62.63427734 142.09277344 C62.16763672 142.70121094 61.70099609 143.30964844 61.22021484 143.93652344 C49.42722978 159.10878492 28.33159061 168.73376662 9.63427734 171.09277344 C-4.16605475 171.84861507 -17.28317953 171.94700173 -30.36572266 167.09277344 C-31.40470703 166.73054687 -32.44369141 166.36832031 -33.51416016 165.99511719 C-55.5667931 157.63325765 -71.60835904 140.10506153 -81.36572266 119.09277344 C-90.20919624 98.83413365 -89.85722303 74.54865586 -81.94995117 54.04199219 C-76.97017504 41.88319742 -69.55269911 32.29332002 -60.36572266 23.09277344 C-59.70958984 22.42503906 -59.05345703 21.75730469 -58.37744141 21.06933594 C-49.23036977 12.41193623 -37.16603766 7.03690046 -25.36572266 3.09277344 C-24.34478516 2.74085937 -24.34478516 2.74085937 -23.30322266 2.38183594 C-15.82529059 0.1577958 -7.73462533 0.30331864 0 0 Z "
				fill="#FE53A5"
				transform="translate(258.36572265625,86.9072265625)"
			/>
			<path
				d="M0 0 C7.20911743 0 12.83892836 0.25338539 19.625 2 C20.48673828 2.22075195 21.34847656 2.44150391 22.23632812 2.66894531 C43.05609316 8.34636464 61.7428683 21.43431657 73 40 C85.83287191 62.70241622 89.57149226 85.68607263 82.61328125 110.96875 C79.01639288 122.80352753 73.18247053 132.74724851 65 142 C64.53335938 142.6084375 64.06671875 143.216875 63.5859375 143.84375 C52.85881 157.64473275 34.71273339 166.29767984 18 170 C17.12472656 170.19722656 16.24945313 170.39445313 15.34765625 170.59765625 C10.26657931 171.20833411 5.11764304 171 0 171 C0 158.13 0 145.26 0 132 C5.28 132 10.56 132 16 132 C16 122.1 16 112.2 16 102 C25.9 102 35.8 102 46 102 C46 91.44 46 80.88 46 70 C36.1 70 26.2 70 16 70 C16 60.1 16 50.2 16 40 C10.72 40 5.44 40 0 40 C0 26.8 0 13.6 0 0 Z "
				fill="#E5055C"
				transform="translate(256,87)"
			/>
			<path
				d="M0 0 C10.23 0 20.46 0 31 0 C31 9.9 31 19.8 31 30 C40.9 30 50.8 30 61 30 C61 40.56 61 51.12 61 62 C51.1 62 41.2 62 31 62 C31 71.57 31 81.14 31 91 C20.77 91 10.54 91 0 91 C0 81.1 0 71.2 0 61 C-9.9 61 -19.8 61 -30 61 C-30 50.77 -30 40.54 -30 30 C-20.1 30 -10.2 30 0 30 C0 20.1 0 10.2 0 0 Z "
				fill="#6DFCF5"
				transform="translate(241,127)"
			/>
			<path
				d="M0 0 C4.95 0 9.9 0 15 0 C15 30.03 15 60.06 15 91 C10.05 91 5.1 91 0 91 C0 81.1 0 71.2 0 61 C-9.9 61 -19.8 61 -30 61 C-30 50.77 -30 40.54 -30 30 C-20.1 30 -10.2 30 0 30 C0 20.1 0 10.2 0 0 Z "
				fill="#FFFDFE"
				transform="translate(241,127)"
			/>
			<path
				d="M0 0 C3.07439893 0.66928821 5.72896372 1.73990946 8.59130859 3.03320312 C14.01949615 5.22944332 18.73635612 5.54112045 24.5390625 5.46875 C25.50476166 5.47579956 26.47046082 5.48284912 27.46542358 5.4901123 C30.51889193 5.51196579 33.57147738 5.50918571 36.625 5.5 C40.65932385 5.48790594 44.69235157 5.50174197 48.7265625 5.53125 C50.09405136 5.51427063 50.09405136 5.51427063 51.48916626 5.49694824 C58.08788115 5.54869987 63.6981676 6.78910886 68.56118774 11.51818848 C72.08130815 15.62784456 73.12564569 17.96718718 73.11352539 23.27587891 C73.11341209 24.92736435 73.11341209 24.92736435 73.11329651 26.61221313 C73.10813522 27.80494843 73.10297394 28.99768372 73.09765625 30.2265625 C73.0962413 31.44451508 73.09482635 32.66246765 73.09336853 33.91732788 C73.08775639 37.8199099 73.07520179 41.72243523 73.0625 45.625 C73.05748657 48.26562417 73.05292339 50.90624924 73.04882812 53.546875 C73.03778301 60.03126945 73.02103302 66.51563068 73 73 C68.15939722 68.96297006 63.5949558 64.73956066 59.14672852 60.27612305 C58.50197067 59.63311752 57.85721283 58.990112 57.19291687 58.32762146 C55.08574278 56.22481031 52.98220182 54.11840877 50.87890625 52.01171875 C49.40932069 50.54280733 47.93958674 49.07404433 46.4697113 47.60542297 C43.40274076 44.53992143 40.33757341 41.47263134 37.27368164 38.40405273 C33.33701057 34.46165456 29.39582656 30.52380315 25.45330906 26.58725262 C22.42419697 23.56174197 19.39745564 20.53386868 16.37144279 17.50525856 C14.91803423 16.05118113 13.46387755 14.59785107 12.00897408 13.14526939 C9.9860643 11.12488254 7.96635935 9.10134711 5.94750977 7.0769043 C5.34135834 6.4727771 4.73520691 5.8686499 4.11068726 5.24621582 C0 1.11426842 0 1.11426842 0 0 Z "
				fill="#7A7981"
				transform="translate(156,351)"
			/>
			<path
				d="M0 0 C12.87 0.495 12.87 0.495 26 1 C26 9.25 26 17.5 26 26 C21.87194537 22.46166746 17.97413195 19.10127913 14.16015625 15.29296875 C13.32548828 14.45958984 12.49082031 13.62621094 11.63085938 12.76757812 C10.78330078 11.91615234 9.93574219 11.06472656 9.0625 10.1875 C8.18787109 9.31673828 7.31324219 8.44597656 6.41210938 7.54882812 C5.58646484 6.72189453 4.76082031 5.89496094 3.91015625 5.04296875 C3.15871338 4.29039795 2.40727051 3.53782715 1.63305664 2.76245117 C0 1 0 1 0 0 Z "
				fill="#7A7981"
				transform="translate(111,268)"
			/>
		</svg>